<svg id="Warstwa_1" data-name="Warstwa 1" xmlns="http://www.w3.org/2000/svg" viewBox="0 0 723.84 654.71"><title>Obszar roboczy 81</title><path d="M624.07,209a36.05,36.05,0,0,0-26.07-16,35.36,35.36,0,0,0-4.13-.24,34.84,34.84,0,0,0-4.36.27c-.07-.14-.13-.28-.2-.41a36,36,0,0,0-15,5.44l.15.33a36.15,36.15,0,0,0-16.78,30.36c0,.22,0,.44,0,.67a35.92,35.92,0,0,0,5.14,18.1L486.23,366.28a1.08,1.08,0,0,1-1.83,0l-61.59-95.52a1.09,1.09,0,0,0-1.83,0L359.45,366.2a1.08,1.08,0,0,1-1.83,0l-29.45-45.69L310,348.75l47.78,73.78a1.1,1.1,0,0,0,1.83,0L421,327.24a1.09,1.09,0,0,1,1.82,0l61.73,95.3a1.1,1.1,0,0,0,1.83,0l101.84-158a36.87,36.87,0,0,0,5.59.43,27.75,27.75,0,0,0,15.57-3.48c.84-.4,1.67-.84,2.49-1.3A36.15,36.15,0,0,0,630,229.33c0-.23,0-.46,0-.68A35.92,35.92,0,0,0,624.07,209ZM359.45,229l29.17,45.23L406.82,246l-47.37-73.48a1.09,1.09,0,0,0-1.83,0l-61.53,95.45a1.09,1.09,0,0,1-1.83,0l-61.65-95.63a1.09,1.09,0,0,0-1.83,0L128.67,330.7l-.12.18a36.24,36.24,0,0,0-5.55-.46,1.23,1.23,0,0,1,0-.19h-.17a36,36,0,0,0-15.38,3.43,1.1,1.1,0,0,0,0,.18c-.9.41-1.78.88-2.63,1.37a36.13,36.13,0,0,0-18.16,31.17c0,.33,0,.66,0,1l0,.89c0,.65.09,1.31.16,2s.12,1,.19,1.54c0,0,0,0,0,.07a36.07,36.07,0,0,0,35.75,30.91,36.43,36.43,0,0,0,4.81-.32,23.45,23.45,0,0,0,14.94-5.55A36.11,36.11,0,0,0,159,366.58c0-.39,0-.76,0-1.13,0-.14,0-.27,0-.41,0-.33,0-.66-.06-1s-.06-.84-.1-1.25a.53.53,0,0,0,0-.13,36.15,36.15,0,0,0-4.9-14.63l.06-.09,77.64-120.42v-.38l.13.19,62.56,97a1.09,1.09,0,0,0,1.83,0L357.62,229A1.08,1.08,0,0,1,359.45,229Zm0-56.48a1.09,1.09,0,0,0-1.83,0l-61.53,95.45a1.09,1.09,0,0,1-1.83,0l-61.65-95.63a1.09,1.09,0,0,0-1.83,0L128.67,330.7A36.18,36.18,0,0,1,153.93,348l77.64-120.42v-.38l.13.19,62.56,97a1.09,1.09,0,0,0,1.83,0L357.62,229a1.08,1.08,0,0,1,1.83,0l29.17,45.23L406.82,246Z"/><path d="M684.83,535.55H39a39.05,39.05,0,0,1-39-39V98.27a39.05,39.05,0,0,1,39-39H684.83a39.05,39.05,0,0,1,39,39V496.54A39.05,39.05,0,0,1,684.83,535.55ZM39,79.33A19,19,0,0,0,20.06,98.27V496.54a19,19,0,0,0,19,18.95H684.83a19,19,0,0,0,18.95-18.95V98.27a19,19,0,0,0-18.95-18.94Z"/><rect x="57.96" y="29.99" width="20.06" height="75.56"/><rect x="111.73" y="29.99" width="20.06" height="75.56"/><rect x="165.49" y="29.99" width="20.06" height="75.56"/><rect x="219.26" y="29.99" width="20.06" height="75.56"/><rect x="273.03" y="29.99" width="20.06" height="75.56"/><rect x="326.79" y="29.99" width="20.06" height="75.56"/><rect x="380.56" y="29.99" width="20.06" height="75.56"/><rect x="434.33" y="29.99" width="20.06" height="75.56"/><rect x="488.09" y="29.99" width="20.06" height="75.56"/><rect x="541.86" y="29.99" width="20.06" height="75.56"/><rect x="595.63" y="29.99" width="20.06" height="75.56"/><rect x="649.39" y="29.99" width="20.06" height="75.56"/></svg>